<svg width="12" height="12" viewBox="0 0 12 12" fill="none" xmlns="http://www.w3.org/2000/svg">
<path d="M9.853 1.81631H8.915V1.29532C8.91049 1.2155 8.87559 1.14042 8.81748 1.08551C8.75937 1.0306 8.68245 1 8.6025 1C8.52255 1 8.44563 1.0306 8.38752 1.08551C8.32941 1.14042 8.29452 1.2155 8.29 1.29532V1.81631H3.707V1.29532C3.70249 1.2155 3.66759 1.14042 3.60948 1.08551C3.55137 1.0306 3.47445 1 3.3945 1C3.31455 1 3.23763 1.0306 3.17952 1.08551C3.12141 1.14042 3.08652 1.2155 3.082 1.29532V1.81631H2.145C1.99438 1.81658 1.84528 1.8465 1.70622 1.90439C1.56716 1.96227 1.44086 2.04696 1.33454 2.15366C1.22821 2.26035 1.14395 2.38695 1.08655 2.52621C1.02915 2.66548 0.999739 2.81468 1 2.9653V9.8403C1.00027 10.1442 1.12109 10.4355 1.33595 10.6504C1.55081 10.8652 1.84214 10.986 2.146 10.9863H9.854C10.1579 10.986 10.4492 10.8652 10.6641 10.6504C10.8789 10.4355 10.9997 10.1442 11 9.8403V2.9653C11.0003 2.81451 10.9708 2.66515 10.9133 2.52576C10.8557 2.38637 10.7713 2.25967 10.6648 2.15295C10.5582 2.04623 10.4317 1.96158 10.2924 1.90381C10.1531 1.84604 10.0038 1.81631 9.853 1.81631ZM2.145 2.44131H3.082V3.17032C3.0796 3.21284 3.08589 3.2554 3.10051 3.29541C3.11513 3.33542 3.13776 3.37203 3.16701 3.40298C3.19627 3.43394 3.23153 3.45858 3.27065 3.47543C3.30977 3.49229 3.35191 3.50101 3.3945 3.50101C3.4371 3.50101 3.47924 3.49229 3.51836 3.47543C3.55747 3.45858 3.59274 3.43394 3.62199 3.40298C3.65125 3.37203 3.67388 3.33542 3.68849 3.29541C3.70311 3.2554 3.70941 3.21284 3.707 3.17032V2.44131H8.29V3.17032C8.2876 3.21284 8.29389 3.2554 8.30851 3.29541C8.32313 3.33542 8.34576 3.37203 8.37501 3.40298C8.40427 3.43394 8.43953 3.45858 8.47865 3.47543C8.51776 3.49229 8.55991 3.50101 8.6025 3.50101C8.6451 3.50101 8.68724 3.49229 8.72636 3.47543C8.76547 3.45858 8.80074 3.43394 8.82999 3.40298C8.85925 3.37203 8.88188 3.33542 8.89649 3.29541C8.91111 3.2554 8.91741 3.21284 8.915 3.17032V2.44131H9.853C9.9911 2.44158 10.1235 2.49656 10.2211 2.59421C10.3188 2.69186 10.3737 2.82421 10.374 2.96231V4.31631H1.624V2.9653C1.62374 2.89667 1.63701 2.82867 1.66307 2.76517C1.68912 2.70167 1.72744 2.64392 1.77583 2.59525C1.82422 2.54657 1.88174 2.50792 1.94509 2.48151C2.00843 2.45509 2.07637 2.44145 2.145 2.44131ZM9.853 10.3583H2.145C2.00691 10.358 1.87454 10.3031 1.77689 10.2054C1.67924 10.1078 1.62427 9.97541 1.624 9.83731V4.93732H10.374V9.83731C10.3737 9.97541 10.3188 10.1078 10.2211 10.2054C10.1235 10.3031 9.9911 10.358 9.853 10.3583Z" fill="#A3A3A3" stroke="#A3A3A3" stroke-width="0.3"/>
</svg>
