<svg width="10" height="8" viewBox="0 0 10 8" fill="none" xmlns="http://www.w3.org/2000/svg">
<path d="M9.22406 0.727567C9.18 0.658979 9.11977 0.602202 9.04865 0.562195C8.97752 0.522187 8.89766 0.500155 8.81604 0.498047H0.69104C0.609594 0.500316 0.529949 0.522423 0.459015 0.562423C0.38808 0.602423 0.328024 0.659116 0.284058 0.727567C0.171474 0.886098 0.110992 1.07559 0.110992 1.26989C0.110992 1.4642 0.171474 1.65371 0.284058 1.81224L4.34406 7.21369C4.38642 7.28372 4.44619 7.34164 4.51758 7.38185C4.58897 7.42205 4.66958 7.44318 4.75156 7.44318C4.83354 7.44318 4.91411 7.42205 4.9855 7.38185C5.0569 7.34164 5.11669 7.28372 5.15906 7.21369L9.21906 1.81224C9.33095 1.65343 9.39099 1.46402 9.39099 1.26989C9.39099 1.07576 9.33095 0.886377 9.21906 0.727567H9.22406Z" fill="#212020"/>
</svg>
